<svg width="185" height="37" viewBox="0 0 185 37" fill="none" xmlns="http://www.w3.org/2000/svg">
<path d="M38.856 36H31.56L31.512 15.84L21.624 32.448H18.12L8.28 16.272V36H0.984V2.4H7.416L19.992 23.28L32.376 2.4H38.76L38.856 36Z" fill="#1E1E1E"/>
<path d="M66.9398 10.752H70.3478V36H67.0837V31.392C65.3078 34.464 62.0438 36.24 58.0118 36.24C51.5798 36.24 47.3558 32.64 47.3558 25.392V10.752H50.7638V25.056C50.7638 30.432 53.5478 33.168 58.3478 33.168C63.6278 33.168 66.9398 29.76 66.9398 24V10.752ZM111.381 10.56C117.525 10.56 121.557 14.112 121.557 21.36V36H118.149V21.696C118.149 16.368 115.461 13.632 110.901 13.632C105.717 13.632 102.453 16.992 102.453 22.752V36H99.0446V21.696C99.0446 16.368 96.3566 13.632 91.7486 13.632C86.6126 13.632 83.3006 16.992 83.3006 22.752V36H79.8926V10.752H83.1566V15.36C84.9326 12.336 88.1966 10.56 92.4206 10.56C96.5966 10.56 99.8606 12.336 101.397 15.888C103.221 12.624 106.821 10.56 111.381 10.56ZM139.631 10.56C146.159 10.56 149.855 13.824 149.855 20.352V36H146.591V32.064C145.055 34.656 142.079 36.24 137.903 36.24C132.191 36.24 128.687 33.264 128.687 28.896C128.687 25.008 131.183 21.744 138.431 21.744H146.447V20.208C146.447 15.888 143.999 13.536 139.295 13.536C136.031 13.536 132.959 14.688 130.895 16.512L129.359 13.968C131.903 11.808 135.647 10.56 139.631 10.56ZM138.431 33.552C142.271 33.552 145.103 31.728 146.447 28.416V24.288H138.527C133.631 24.288 132.047 26.208 132.047 28.8C132.047 31.728 134.399 33.552 138.431 33.552ZM160.839 5.232C159.447 5.232 158.343 4.128 158.343 2.784C158.343 1.488 159.447 0.383998 160.839 0.383998C162.231 0.383998 163.335 1.44 163.335 2.736C163.335 4.128 162.279 5.232 160.839 5.232ZM159.111 36V10.752H162.519V36H159.111ZM175.266 15.696C176.85 12.336 180.066 10.56 184.722 10.56V13.872C184.434 13.872 184.146 13.824 183.906 13.824C178.626 13.824 175.41 17.184 175.41 23.136V36H172.002V10.752H175.266V15.696Z" fill="#545454"/>
</svg>
